<?xml version="1.0" standalone="no"?>
<!DOCTYPE svg PUBLIC "-//W3C//DTD SVG 20010904//EN"
 "http://www.w3.org/TR/2001/REC-SVG-20010904/DTD/svg10.dtd">
<svg version="1.0" xmlns="http://www.w3.org/2000/svg"
 width="512.000000pt" height="512.000000pt" viewBox="0 0 512.000000 512.000000"
 preserveAspectRatio="xMidYMid meet">

<g transform="translate(0.000000,512.000000) scale(0.100000,-0.100000)"
fill="#000000" stroke="none">
<path d="M640 3415 l0 -1065 855 0 855 0 0 1065 0 1065 -855 0 -855 0 0 -1065z"/>
<path d="M2770 3840 l0 -640 855 0 855 0 0 640 0 640 -855 0 -855 0 0 -640z"/>
<path d="M2770 1705 l0 -1065 855 0 855 0 0 1065 0 1065 -855 0 -855 0 0
-1065z"/>
<path d="M640 1280 l0 -640 855 0 855 0 0 640 0 640 -855 0 -855 0 0 -640z"/>
</g>
</svg>
